{
.appVersion = "3151";
.formatVersion = 3;
customParameters = (
{
name = vendorID;
value = "M+  ";
},
{
name = panose;
value = (
2,
11,
9,
2,
2,
2,
3,
2,
2,
7
);
},
{
name = unicodeRanges;
value = (
0,
1,
2,
3,
4,
5,
6,
7,
9,
11,
24,
29,
30,
31,
32,
33,
35,
36,
37,
38,
39,
40,
42,
43,
44,
45,
46,
47,
48,
49,
50,
54,
57,
59,
61,
62,
65,
68,
89
);
},
{
name = codePageRanges;
value = (
"1252",
"1250",
"1251",
"1253",
"1254",
"1255",
"1257",
"1258",
"932",
"950",
"bit 29",
"bit 30",
"869",
"866",
"865",
"863",
"862",
"861",
"860",
"857",
"855",
"852",
"775",
"737",
"850",
"437"
);
},
{
name = fsType;
value = (
);
}
);
date = "2015-05-28 17:04:10 +0000";
familyName = "Yaku Han RP";
featurePrefixes = (
{
automatic = 1;
code = "languagesystem DFLT dflt;
";
name = Languagesystems;
}
);
features = (
{
automatic = 1;
code = "feature vert;
feature vrt2;
";
tag = aalt;
},
{
automatic = 1;
code = "sub comma-han by comma-han.vert;
sub period-han by period-han.vert;
sub colon.full by colon.full.vert;
sub anglebracketleft by anglebracketleft.vert;
sub anglebracketright by anglebracketright.vert;
sub blacklenticularbracketleft by blacklenticularbracketleft.vert;
sub blacklenticularbracketright by blacklenticularbracketright.vert;
sub cornerbracketleft by cornerbracketleft.vert;
sub cornerbracketright by cornerbracketright.vert;
sub dblanglebracketleft by dblanglebracketleft.vert;
sub dblanglebracketright by dblanglebracketright.vert;
sub tortoiseshellbracketleft by tortoiseshellbracketleft.vert;
sub tortoiseshellbracketright by tortoiseshellbracketright.vert;
sub whitecornerbracketleft by whitecornerbracketleft.vert;
sub whitecornerbracketright by whitecornerbracketright.vert;
sub whitelenticularbracketleft by whitelenticularbracketleft.vert;
sub whitelenticularbracketright by whitelenticularbracketright.vert;
sub braceleft.full by braceleft.full.vert;
sub braceright.full by braceright.full.vert;
sub bracketleft.full by bracketleft.full.vert;

glyphs = (
{
glyphname = "comma-han";
lastChange = "2023-08-27 07:22:36 +0000";
layers = (
{
layerId = m01;
shapes = (
{
closed = 1;
nodes = (
(170,220,o),
(151,205,qs),
(114,175,ls),
(96,161,o),
(92,115,o),
(107,97,qs),
(197,-12,o),
(216,-35,qs),
(231,-54,o),
(277,-61,o),
(297,-48,qs),
(333,-22,ls),
(352,-8,o),
(359,37,o),
(345,55,qs),
(258,163,o),
(231,196,qs),
(216,214,o)
);
}
);
vertWidth = 1000;
width = 1000;
}
);
note = uni3001;
unicode = 12289;
},
{
glyphname = "comma-han.vert";
lastChange = "2023-08-27 07:22:36 +0000";
layers = (
{
layerId = m01;
shapes = (
{
closed = 1;
nodes = (
(720,780,o),
(701,765,qs),
(664,735,ls),
(646,721,o),
(642,675,o),
(657,657,qs),
(747,548,o),
(766,525,qs),
(781,506,o),
(827,499,o),
(847,512,qs),
(883,538,ls),
(902,552,o),
(909,597,o),
(895,615,qs),
(808,723,o),
(781,756,qs),
(766,774,o)
);
}
);
vertWidth = 1000;
width = 1000;
}
);
note = glyph08466;
},
{
glyphname = "period-han";
lastChange = "2023-08-27 07:22:36 +0000";
layers = (
{
layerId = m01;
shapes = (
{
closed = 1;
nodes = (
(165,102,o),
(198,135,o),
(242,135,o),
(275,102,o),
(275,58,o),
(242,25,o),
(198,25,o),
(165,58,o)
);
},
{
closed = 1;
nodes = (
(50,10,o),
(150,-90,o),
(290,-90,o),
(390,10,o),
(390,150,o),
(290,250,o),
(150,250,o),
(50,150,o)
);
}
);
vertWidth = 1000;
width = 1000;
}
);
note = uni3002;
unicode = 12290;
},
{
glyphname = "period-han.vert";
lastChange = "2023-08-27 07:22:36 +0000";
layers = (
{
layerId = m01;
shapes = (
{
closed = 1;
nodes = (
(725,662,o),
(758,695,o),
(802,695,o),
(835,662,o),
(835,618,o),
(802,585,o),
(758,585,o),
(725,618,o)
);
},
{
closed = 1;
nodes = (
(610,570,o),
(710,470,o),
(850,470,o),
(950,570,o),
(950,710,o),
(850,810,o),
(710,810,o),
(610,710,o)
);
}
);
vertWidth = 1000;
width = 1000;
}
);
note = glyph08467;
},
{
glyphname = "dot-kata";
lastChange = "2023-08-27 07:22:36 +0000";
layers = (
{
layerId = m01;
shapes = (
{
closed = 1;
nodes = (
(424,470,o),
(390,436,o),
(390,413,qs),
(390,307,ls),
(390,284,o),
(424,250,o),
(447,250,qs),
(553,250,ls),
(576,250,o),
(610,284,o),
(610,307,qs),
(610,413,ls),
(610,436,o),
(576,470,o),
(553,470,qs),
(447,470,ls)
);
}
);
vertWidth = 1000;
width = 1000;
}
);
note = uni30FB;
unicode = 12539;
},
{
glyphname = hyphenationpoint;
lastChange = "2023-08-27 07:22:36 +0000";
layers = (
{
layerId = m01;
shapes = (
{
closed = 1;
nodes = (
(152,395,o),
(118,361,o),
(118,338,qs),
(118,242,ls),
(118,219,o),
(152,185,o),
(175,185,qs),
(281,185,ls),
(304,185,o),
(338,219,o),
(338,242,qs),
(338,338,ls),
(338,361,o),
(304,395,o),
(281,395,qs),
(175,395,ls)
);
}
);
vertWidth = 1000;
width = 456;
}
);
note = uni2027;
unicode = 8231;
},
{
glyphname = colon.full;
lastChange = "2023-08-27 07:22:36 +0000";
layers = (
{
layerId = m01;
shapes = (
{
closed = 1;
nodes = (
(424,260,o),
(390,226,o),
(390,203,qs),
(390,107,ls),
(390,84,o),
(424,50,o),
(447,50,qs),
(553,50,ls),
(576,50,o),
(610,84,o),
(610,107,qs),
(610,203,ls),
(610,226,o),
(576,260,o),
(553,260,qs),
(447,260,ls)
);
},
{
closed = 1;
nodes = (
(424,670,o),
(390,636,o),
(390,613,qs),
(390,517,ls),
(390,494,o),
(424,460,o),
(447,460,qs),
(553,460,ls),
(576,460,o),
(610,494,o),
(610,517,qs),
(610,613,ls),
(610,636,o),
(576,670,o),
(553,670,qs),
(447,670,ls)
);
}
);
vertWidth = 1000;
width = 1000;
}
);
note = uniFF1A;
unicode = 65306;
},
{
glyphname = exclam.full;
lastChange = "2023-08-27 07:22:36 +0000";
layers = (
{
layerId = m01;
shapes = (
{
closed = 1;
nodes = (
(414,730,o),
(382,696,o),
(383,673,qs),
(407,297,ls),
(409,273,o),
(443,240,o),
(467,240,qs),
(533,240,ls),
(557,240,o),
(591,273,o),
(593,297,qs),
(617,673,ls),
(618,696,o),
(586,730,o),
(563,730,qs),
(437,730,ls)
);
},
{
closed = 1;
nodes = (
(434,160,o),
(400,126,o),
(400,103,qs),
(400,57,ls),
(400,34,o),
(434,0,o),
(457,0,qs),
(543,0,ls),
(566,0,o),
(600,34,o),
(600,57,qs),
(600,103,ls),
(600,126,o),
(566,160,o),
(543,160,qs),
(457,160,ls)
);
}
);
vertWidth = 1000;
width = 1000;
}
);
note = uniFF01;
unicode = 65281;
},
{
glyphname = question.full;
lastChange = "2023-08-27 07:22:36 +0000";
layers = (
{
layerId = m01;
shapes = (
{
closed = 1;
nodes = (
(255,714,qs),
(232,709,o),
(207,668,o),
(212,645,qs),
(223,600,ls),
(228,578,o),
(267,555,o),
(290,560,qs),
(389,585,o),
(470,585,qs),
(580,585,o),
(580,530,qs),
(580,516,o),
(556,485,o),
(530,465,o),
(504,446,qs),
(468,421,o),
(429,390,o),
(378,328,o),
(368,296,qs),
(361,274,o),
(393,240,o),
(417,240,qs),
(483,240,ls),
(524,240,o),
(561,293,qs),
(582,321,o),
(651,365,qs),
(685,387,o),
(721,413,o),
(769,462,o),
(790,522,o),
(790,560,qs),
(790,640,o),
(636,740,o),
(500,740,qs),
(376,740,o)
);
},
{
closed = 1;
nodes = (
(384,160,o),
(350,126,o),
(350,103,qs),
(350,57,ls),
(350,34,o),
(384,0,o),
(407,0,qs),
(493,0,ls),
(516,0,o),
(550,34,o),
(550,57,qs),
(550,103,ls),
(550,126,o),
(516,160,o),
(493,160,qs),
(407,160,ls)
);
}
);
vertWidth = 1000;
width = 1000;
}
);
note = uniFF1F;
unicode = 65311;
},
{
glyphname = semicolon.full;
lastChange = "2023-08-27 07:22:36 +0000";
layers = (
{
layerId = m01;
shapes = (
{
closed = 1;
nodes = (
(427,260,o),
(390,228,o),
(385,204,qs),
(345,-4,ls),
(341,-26,o),
(370,-60,o),
(392,-60,qs),
(438,-60,ls),
(464,-60,o),
(506,-31,o),
(515,-7,qs),
(595,207,ls),
(602,226,o),
(578,260,o),
(558,260,qs),
(452,260,ls)
);
},
{
closed = 1;
nodes = (
(429,670,o),
(395,636,o),
(395,613,qs),
(395,517,ls),
(395,494,o),
(429,460,o),
(452,460,qs),
(558,460,ls),
(581,460,o),
(615,494,o),
(615,517,qs),
(615,613,ls),
(615,636,o),
(581,670,o),
(558,670,qs),
(452,670,ls)
);
}
);
vertWidth = 1000;
width = 1000;
}
);
note = uniFF1B;
unicode = 65307;
},
{
glyphname = colon.full.vert;
lastChange = "2023-08-27 07:22:36 +0000";
layers = (
{
layerId = m01;
shapes = (
{
closed = 1;
nodes = (
(424,260,o),
(390,226,o),
(390,203,qs),
(390,107,ls),
(390,84,o),
(424,50,o),
(447,50,qs),
(553,50,ls),
(576,50,o),
(610,84,o),
(610,107,qs),
(610,203,ls),
(610,226,o),
(576,260,o),
(553,260,qs),
(447,260,ls)
);
},
{
closed = 1;
nodes = (
(424,670,o),
(390,636,o),
(390,613,qs),
(390,517,ls),
(390,494,o),
(424,460,o),
(447,460,qs),
(553,460,ls),
(576,460,o),
(610,494,o),
(610,517,qs),
(610,613,ls),
(610,636,o),
(576,670,o),
(553,670,qs),
(447,670,ls)
);
}
);
vertWidth = 1000;
width = 1000;
}
);
note = glyph08518;
},
{
glyphname = angleLeft;
lastChange = "2023-08-27 07:22:36 +0000";
layers = (
{
layerId = m01;
shapes = (
{
closed = 1;
nodes = (
(421,770,o),
(402,770,qs),
(326,770,ls),
(299,770,o),
(254,743,o),
(242,720,qs),
(36,335,ls),
(8,285,o),
(36,235,qs),
(242,-150,ls),
(254,-173,o),
(299,-200,o),
(326,-200,qs),
(402,-200,ls),
(421,-200,o),
(441,-167,o),
(432,-150,qs),
(203,278,ls),
(200,285,o),
(203,292,qs),
(432,720,ls),
(441,737,o)
);
}
);
vertWidth = 1000;
width = 464;
}
);
note = angleleft;
unicode = 9001;
},
{
glyphname = angleRight;
lastChange = "2023-08-27 07:22:36 +0000";
layers = (
{
layerId = m01;
shapes = (
{
closed = 1;
nodes = (
(210,743,o),
(165,770,o),
(138,770,qs),
(62,770,ls),
(43,770,o),
(23,737,o),
(32,720,qs),
(261,292,ls),
(264,285,o),
(261,278,qs),
(32,-150,ls),
(23,-167,o),
(43,-200,o),
(62,-200,qs),
(138,-200,ls),
(165,-200,o),
(210,-173,o),
(222,-150,qs),
(428,235,ls),
(455,285,o),
(428,335,qs),
(222,720,ls)
);
}
);
vertWidth = 1000;
width = 464;
}
);
note = angleright;
unicode = 9002;
},
{
glyphname = anglebracketleft;
lastChange = "2023-08-27 07:22:36 +0000";
layers = (
{
layerId = m01;
shapes = (
{
closed = 1;
nodes = (
(872,845,o),
(853,845,qs),
(777,845,ls),
(719,845,o),
(693,795,qs),
(487,410,ls),
(460,360,o),
(487,310,qs),
(693,-75,ls),
(719,-125,o),
(777,-125,qs),
(853,-125,ls),
(872,-125,o),
(892,-92,o),
(883,-75,qs),
(654,353,ls),
(651,360,o),
(654,367,qs),
(883,795,ls),
(892,812,o)
);
}
);
vertWidth = 1000;
width = 1000;
}
);
note = uni3008;
unicode = 12296;
},
{
glyphname = anglebracketright;
lastChange = "2023-08-27 07:22:36 +0000";
layers = (
{
layerId = m01;
shapes = (
{
closed = 1;
nodes = (
(223,845,qs),
(147,845,ls),
(128,845,o),
(108,812,o),
(117,795,qs),
(346,367,ls),
(349,360,o),
(346,353,qs),
(117,-75,ls),
(108,-92,o),
(128,-125,o),
(147,-125,qs),
(223,-125,ls),
(281,-125,o),
(307,-75,qs),
(513,310,ls),
(540,360,o),
(513,410,qs),
(307,795,ls),
(281,845,o)
);
}
);
vertWidth = 1000;
width = 1000;
}
);
note = uni3009;
unicode = 12297;
},
{
glyphname = blacklenticularbracketleft;
lastChange = "2023-08-27 07:22:36 +0000";
layers = (
{
layerId = m01;
shapes = (
{
closed = 1;
nodes = (
(604,845,o),
(570,811,o),
(570,788,qs),
(570,-68,ls),
(570,-91,o),
(604,-125,o),
(627,-125,qs),
(853,-125,ls),
(869,-125,o),
(882,-96,o),
(872,-84,qs),
(794,8,o),
(710,238,o),
(710,482,o),
(794,712,o),
(872,804,qs),
(882,816,o),
(869,845,o),
(853,845,qs),
(627,845,ls)
);
}
);
vertWidth = 1000;
width = 1000;
}
);
note = uni3010;
unicode = 12304;
},
{
glyphname = blacklenticularbracketright;
lastChange = "2023-08-27 07:22:36 +0000";
layers = (
{
layerId = m01;
shapes = (
{
closed = 1;
nodes = (
(131,845,o),
(118,816,o),
(128,804,qs),
(206,712,o),
(290,482,o),
(290,238,o),
(206,8,o),
(128,-84,qs),
(118,-96,o),
(131,-125,o),
(147,-125,qs),
(373,-125,ls),
(396,-125,o),
(430,-91,o),
(430,-68,qs),
(430,788,ls),
(430,811,o),
(396,845,o),
(373,845,qs),
(147,845,ls)
);
}
);
vertWidth = 1000;
width = 1000;
}
);
note = uni3011;
unicode = 12305;
},
{
glyphname = braceleft.full;
lastChange = "2023-08-27 07:22:36 +0000";
layers = (
{
layerId = m01;
shapes = (
{
closed = 1;
nodes = (
(595,845,o),
(515,767,o),
(515,675,qs),
(515,540,ls),
(515,477,o),
(475,430,o),
(425,430,qs),
(412,430,ls),
(389,430,o),
(355,396,o),
(355,373,qs),
(355,347,ls),
(355,324,o),
(389,290,o),
(412,290,qs),
(425,290,ls),
(475,290,o),
(515,243,o),
(515,180,qs),
(515,45,ls),
(515,-47,o),
(595,-125,o),
(685,-125,qs),
(828,-125,ls),
(851,-125,o),
(885,-91,o),
(885,-68,qs),
(885,-52,ls),
(885,-29,o),
(851,5,o),
(828,5,qs),
(775,5,ls),
(713,5,o),
(685,32,o),
(685,95,qs),
(685,185,ls),
(685,257,o),
(630,335,o),
(566,359,q),
(565,359,o),
(565,361,o),
(566,361,q),
(630,385,o),
(685,463,o),
(685,535,qs),
(685,625,ls),
(685,688,o),
(713,715,o),
(775,715,qs),
(828,715,ls),
(851,715,o),
(885,749,o),
(885,772,qs),
(885,788,ls),
(885,811,o),
(851,845,o),
(828,845,qs),
(685,845,ls)
);
}
);
vertWidth = 1000;
width = 1000;
}
);
note = uniFF5B;
unicode = 65371;
},
{
glyphname = braceright.full;
lastChange = "2023-08-27 07:22:36 +0000";
layers = (
{
layerId = m01;
shapes = (
{
closed = 1;
nodes = (
(525,430,o),
(485,477,o),
(485,540,qs),
(485,675,ls),
(485,767,o),
(405,845,o),
(315,845,qs),
(172,845,ls),
(149,845,o),
(115,811,o),
(115,788,qs),
(115,772,ls),
(115,749,o),
(149,715,o),
(172,715,qs),
(225,715,ls),
(287,715,o),
(315,688,o),
(315,625,qs),
(315,535,ls),
(315,463,o),
(370,385,o),
(434,361,q),
(435,361,o),
(435,359,o),
(434,359,q),
(370,335,o),
(315,257,o),
(315,185,qs),
(315,95,ls),
(315,32,o),
(287,5,o),
(225,5,qs),
(172,5,ls),
(149,5,o),
(115,-29,o),
(115,-52,qs),
(115,-68,ls),
(115,-91,o),
(149,-125,o),
(172,-125,qs),
(315,-125,ls),
(405,-125,o),
(485,-47,o),
(485,45,qs),
(485,180,ls),
(485,243,o),
(525,290,o),
(575,290,qs),
(588,290,ls),
(611,290,o),
(645,324,o),
(645,347,qs),
(645,373,ls),
(645,396,o),
(611,430,o),
(588,430,qs),
(575,430,ls)
);
}
);
vertWidth = 1000;
width = 1000;
}
);
note = uniFF5D;
unicode = 65373;
},
{
glyphname = cornerbracketleft;
lastChange = "2023-08-27 07:22:36 +0000";
layers = (
{
layerId = m01;
shapes = (
{
closed = 1;
nodes = (
(524,830,o),
(490,796,o),
(490,773,qs),
(490,117,ls),
(490,94,o),
(524,60,o),
(547,60,qs),
(613,60,ls),
(636,60,o),
(670,94,o),
(670,117,qs),
(670,671,ls),
(670,680,o),
(679,680,qs),
(883,680,ls),
(906,680,o),
(940,714,o),
(940,737,qs),
(940,773,ls),
(940,796,o),
(906,830,o),
(883,830,qs),
(547,830,ls)
);
}
);
vertWidth = 1000;
width = 1000;
}
);
note = uni300C;
unicode = 12300;
},
{
glyphname = cornerbracketright;
lastChange = "2023-08-27 07:22:36 +0000";
layers = (
{
layerId = m01;
shapes = (
{
closed = 1;
nodes = (
(364,660,o),
(330,626,o),
(330,603,qs),
(330,49,ls),
(330,40,o),
(321,40,qs),
(117,40,ls),
(94,40,o),
(60,6,o),
(60,-17,qs),
(60,-53,ls),
(60,-76,o),
(94,-110,o),
(117,-110,qs),
(453,-110,ls),
(476,-110,o),
(510,-76,o),
(510,-53,qs),
(510,603,ls),
(510,626,o),
(476,660,o),
(453,660,qs),
(387,660,ls)
);
}
);
vertWidth = 1000;
width = 1000;
}
);
note = uni300D;
unicode = 12301;
},
{
glyphname = dblanglebracketleft;
lastChange = "2023-08-27 07:22:36 +0000";
layers = (
{
layerId = m01;
shapes = (
{
closed = 1;
nodes = (
(872,845,o),
(853,845,qs),
(787,845,ls),
(729,845,o),
(703,795,qs),
(497,410,ls),
(470,360,o),
(497,310,qs),
(703,-75,ls),
(729,-125,o),
(787,-125,qs),
(853,-125,ls),
(872,-125,o),
(892,-92,o),
(883,-75,qs),
(654,353,ls),
(651,360,o),
(654,367,qs),
(883,795,ls),
(892,812,o)
);
},
{
closed = 1;
nodes = (
(404,367,qs),
(633,795,ls),
(642,812,o),
(622,845,o),
(603,845,qs),
(537,845,ls),
(479,845,o),
(453,795,qs),
(247,410,ls),
(220,360,o),
(247,310,qs),
(453,-75,ls),
(479,-125,o),
(537,-125,qs),
(603,-125,ls),
(622,-125,o),
(642,-92,o),
(633,-75,qs),
(404,353,ls),
(401,360,o)
);
}
);
vertWidth = 1000;
width = 1000;
}
);
note = uni300A;
unicode = 12298;
},
{
glyphname = dblanglebracketright;
lastChange = "2023-08-27 07:22:36 +0000";
layers = (
{
layerId = m01;
shapes = (
{
closed = 1;
nodes = (
(271,845,o),
(213,845,qs),
(147,845,ls),
(128,845,o),
(108,812,o),
(117,795,qs),
(346,367,ls),
(349,360,o),
(346,353,qs),
(117,-75,ls),
(108,-92,o),
(128,-125,o),
(147,-125,qs),
(213,-125,ls),
(271,-125,o),
(297,-75,qs),
(503,310,ls),
(530,360,o),
(503,410,qs),
(297,795,ls)
);
},
{
closed = 1;
nodes = (
(463,845,qs),
(397,845,ls),
(378,845,o),
(358,812,o),
(367,795,qs),
(596,367,ls),
(599,360,o),
(596,353,qs),
(367,-75,ls),
(358,-92,o),
(378,-125,o),
(397,-125,qs),
(463,-125,ls),
(521,-125,o),
(547,-75,qs),
(753,310,ls),
(780,360,o),
(753,410,qs),
(547,795,ls),
(521,845,o)
);
}
);
vertWidth = 1000;
width = 1000;
}
);
note = uni300B;
unicode = 12299;
},
{
glyphname = tortoiseshellbracketleft;
lastChange = "2023-08-27 07:22:36 +0000";
layers = (
{
layerId = m01;
shapes = (
{
closed = 1;
nodes = (
(476,748,o),
(445,708,o),
(445,683,qs),
(445,37,ls),
(445,12,o),
(476,-28,o),
(500,-34,qs),
(830,-116,ls),
(851,-121,o),
(885,-95,o),
(885,-73,qs),
(885,-53,ls),
(885,-28,o),
(854,12,o),
(830,18,qs),
(623,70,ls),
(615,72,o),
(615,81,qs),
(615,640,ls),
(615,648,o),
(623,650,qs),
(830,702,ls),
(854,708,o),
(885,748,o),
(885,773,qs),
(885,793,ls),
(885,815,o),
(851,841,o),
(830,836,qs),
(500,754,ls)
);
}
);
vertWidth = 1000;
width = 1000;
}
);
note = uni3014;
unicode = 12308;
},
{
glyphname = tortoiseshellbracketright;
lastChange = "2023-08-27 07:22:36 +0000";
layers = (
{
layerId = m01;
shapes = (
{
closed = 1;
nodes = (
(149,841,o),
(115,815,o),
(115,793,qs),
(115,773,ls),
(115,748,o),
(146,708,o),
(170,702,qs),
(377,650,ls),
(385,648,o),
(385,639,qs),
(385,80,ls),
(385,72,o),
(377,70,qs),
(170,18,ls),
(146,12,o),
(115,-28,o),
(115,-53,qs),
(115,-73,ls),
(115,-95,o),
(149,-121,o),
(170,-116,qs),
(500,-34,ls),
(524,-28,o),
(555,12,o),
(555,37,qs),
(555,683,ls),
(555,708,o),
(524,748,o),
(500,754,qs),
(170,836,ls)
);
}
);
vertWidth = 1000;
width = 1000;
}
);
note = uni3015;
unicode = 12309;
},
{
glyphname = whitecornerbracketleft;
lastChange = "2023-08-27 07:22:36 +0000";
layers = (
{
layerId = m01;
shapes = (
{
closed = 1;
nodes = (
(831,650,qs),
(677,650,ls),
(654,650,o),
(620,616,o),
(620,593,qs),
(620,119,ls),
(620,110,o),
(611,110,qs),
(548,110,ls),
(540,110,o),
(540,119,qs),
(540,722,ls),
(540,730,o),
(548,730,qs),
(831,730,ls),
(840,730,o),
(840,722,qs),
(840,659,ls),
(840,650,o)
);
},
{
closed = 1;
nodes = (
(474,830,o),
(440,796,o),
(440,773,qs),
(440,67,ls),
(440,44,o),
(474,10,o),
(497,10,qs),
(540,10,l),
(663,10,ls),
(686,10,o),
(720,44,o),
(720,67,qs),
(720,541,ls),
(720,550,o),
(729,550,qs),
(883,550,ls),
(906,550,o),
(940,584,o),
(940,607,qs),
(940,773,ls),
(940,796,o),
(906,830,o),
(883,830,qs),
(497,830,ls)
);
}
);
vertWidth = 1000;
width = 1000;
}
);
note = uni300E;
unicode = 12302;
},
{
glyphname = whitecornerbracketright;
lastChange = "2023-08-27 07:22:36 +0000";
layers = (
{
layerId = m01;
shapes = (
{
closed = 1;
nodes = (
(451,-10,qs),
(168,-10,ls),
(160,-10,o),
(160,-1,qs),
(160,62,ls),
(160,70,o),
(168,70,qs),
(323,70,ls),
(346,70,o),
(380,104,o),
(380,127,qs),
(380,602,ls),
(380,610,o),
(388,610,qs),
(451,610,ls),
(460,610,o),
(460,602,qs),
(460,-1,ls),
(460,-10,o)
);
},
{
closed = 1;
nodes = (
(337,710,ls),
(314,710,o),
(280,676,o),
(280,653,qs),
(280,179,ls),
(280,170,o),
(271,170,qs),
(117,170,ls),
(94,170,o),
(60,136,o),
(60,113,qs),
(60,-53,ls),
(60,-76,o),
(94,-110,o),
(117,-110,qs),
(503,-110,ls),
(526,-110,o),
(560,-76,o),
(560,-53,qs),
(560,653,ls),
(560,676,o),
(526,710,o),
(503,710,qs),
(460,710,l)
);
}
);
vertWidth = 1000;
width = 1000;
}
);
note = uni300F;
unicode = 12303;
},
{
glyphname = whitelenticularbracketleft;
lastChange = "2023-08-27 07:22:36 +0000";
layers = (
{
layerId = m01;
shapes = (
{
closed = 1;
nodes = (
(713,-25,qs),
(578,-25,ls),
(570,-25,o),
(570,-16,qs),
(570,736,ls),
(570,745,o),
(578,745,qs),
(713,745,ls),
(722,745,o),
(718,737,qs),
(630,558,o),
(630,162,o),
(718,-17,qs),
(722,-25,o)
);
},
{
closed = 1;
nodes = (
(504,845,o),
(470,811,o),
(470,788,qs),
(470,-68,ls),
(470,-91,o),
(504,-125,o),
(527,-125,qs),
(853,-125,ls),
(869,-125,o),
(884,-96,o),
(874,-82,qs),
(730,107,o),
(730,613,o),
(874,802,qs),
(884,816,o),
(869,845,o),
(853,845,qs),
(527,845,ls)
);
}
);
vertWidth = 1000;
width = 1000;
}
);
note = uni3016;
unicode = 12310;
},
{
glyphname = whitelenticularbracketright;
lastChange = "2023-08-27 07:22:36 +0000";
layers = (
{
layerId = m01;
shapes = (
{
closed = 1;
nodes = (
(421,-25,qs),
(286,-25,ls),
(278,-25,o),
(282,-17,qs),
(370,162,o),
(370,558,o),
(282,737,qs),
(278,745,o),
(286,745,qs),
(421,745,ls),
(430,745,o),
(430,736,qs),
(430,-16,ls),
(430,-25,o)
);
},
{
closed = 1;
nodes = (
(131,845,o),
(116,816,o),
(126,802,qs),
(270,613,o),
(270,107,o),
(126,-82,qs),
(116,-96,o),
(131,-125,o),
(147,-125,qs),
(473,-125,ls),
(496,-125,o),
(530,-91,o),
(530,-68,qs),
(530,788,ls),
(530,811,o),
(496,845,o),
(473,845,qs),
(147,845,ls)
);
}
);
vertWidth = 1000;
width = 1000;
}
);
note = uni3017;
unicode = 12311;
},
{
glyphname = anglebracketleft.vert;
lastChange = "2023-08-27 07:22:36 +0000";
layers = (
{
layerId = m01;
shapes = (
{
closed = 1;
nodes = (
(985,-12,o),
(985,7,qs),
(985,83,ls),
(985,141,o),
(935,167,qs),
(550,373,ls),
(500,400,o),
(450,373,qs),
(65,167,ls),
(15,141,o),
(15,83,qs),
(15,7,ls),
(15,-12,o),
(48,-32,o),
(65,-23,qs),
(493,206,ls),
(500,209,o),
(507,206,qs),
(935,-23,ls),
(952,-32,o)
);
}
);
vertWidth = 1000;
width = 1000;
}
);
note = glyph08468;
},
{
glyphname = anglebracketright.vert;
lastChange = "2023-08-27 07:22:36 +0000";
layers = (
{
layerId = m01;
shapes = (
{
closed = 1;
nodes = (
(985,637,qs),
(985,713,ls),
(985,732,o),
(952,752,o),
(935,743,qs),
(507,514,ls),
(500,511,o),
(493,514,qs),
(65,743,ls),
(48,752,o),
(15,732,o),
(15,713,qs),
(15,637,ls),
(15,579,o),
(65,553,qs),
(450,347,ls),
(500,320,o),
(550,347,qs),
(935,553,ls),
(985,579,o)
);
}
);
vertWidth = 1000;
width = 1000;
}
);
note = glyph08469;
},
{
glyphname = blacklenticularbracketleft.vert;
lastChange = "2023-08-27 07:22:36 +0000";
layers = (
{
layerId = m01;
shapes = (
{
closed = 1;
nodes = (
(985,256,o),
(951,290,o),
(928,290,qs),
(72,290,ls),
(49,290,o),
(15,256,o),
(15,233,qs),
(15,7,ls),
(15,-9,o),
(44,-22,o),
(56,-12,qs),
(148,66,o),
(378,150,o),
(622,150,o),
(852,66,o),
(944,-12,qs),
(956,-22,o),
(985,-9,o),
(985,7,qs),
(985,233,ls)
);
}
);
vertWidth = 1000;
width = 1000;
}
);
note = glyph08476;
},
{
glyphname = blacklenticularbracketright.vert;
lastChange = "2023-08-27 07:22:36 +0000";
layers = (
{
layerId = m01;
shapes = (
{
closed = 1;
nodes = (
(985,729,o),
(956,742,o),
(944,732,qs),
(852,654,o),
(622,570,o),
(378,570,o),
(148,654,o),
(56,732,qs),
(44,742,o),
(15,729,o),
(15,713,qs),
(15,487,ls),
(15,464,o),
(49,430,o),
(72,430,qs),
(928,430,ls),
(951,430,o),
(985,464,o),
(985,487,qs),
(985,713,ls)
);
}
);
vertWidth = 1000;
width = 1000;
}
);
note = glyph08477;
},
{
glyphname = bracketleft.full;
lastChange = "2023-08-27 07:22:36 +0000";
layers = (
{
layerId = m01;
shapes = (
{
closed = 1;
nodes = (
(479,845,o),
(445,811,o),
(445,788,qs),
(445,-68,ls),
(445,-91,o),
(479,-125,o),
(502,-125,qs),
(828,-125,ls),
(851,-125,o),
(885,-91,o),
(885,-68,qs),
(885,-52,ls),
(885,-29,o),
(851,5,o),
(828,5,qs),
(624,5,ls),
(615,5,o),
(615,14,qs),
(615,706,ls),
(615,715,o),
(624,715,qs),
(828,715,ls),
(851,715,o),
(885,749,o),
(885,772,qs),
(885,788,ls),
(885,811,o),
(851,845,o),
(828,845,qs),
(502,845,ls)
);
}
);
vertWidth = 1000;
width = 1000;
}
);
note = uniFF3B;
unicode = 65339;
},
{
glyphname = bracketright.full;
lastChange = "2023-08-27 07:22:36 +0000";
layers = (
{
layerId = m01;
shapes = (
{
closed = 1;
nodes = (
(149,845,o),
(115,811,o),
(115,788,qs),
(115,772,ls),
(115,749,o),
(149,715,o),
(172,715,qs),
(376,715,ls),
(385,715,o),
(385,706,qs),
(385,14,ls),
(385,5,o),
(376,5,qs),
(172,5,ls),
(149,5,o),
(115,-29,o),
(115,-52,qs),
(115,-68,ls),
(115,-91,o),
(149,-125,o),
(172,-125,qs),
(498,-125,ls),
(521,-125,o),
(555,-91,o),
(555,-68,qs),
(555,788,ls),
(555,811,o),
(521,845,o),
(498,845,qs),
(172,845,ls)
);
}
);
vertWidth = 1000;
width = 1000;
}
);
note = uniFF3D;
unicode = 65341;
},
{
glyphname = cornerbracketleft.vert;
lastChange = "2023-08-27 07:22:36 +0000";
layers = (
{
layerId = m01;
shapes = (
{
closed = 1;
nodes = (
(970,336,o),
(936,370,o),
(913,370,qs),
(257,370,ls),
(234,370,o),
(200,336,o),
(200,313,qs),
(200,247,ls),
(200,224,o),
(234,190,o),
(257,190,qs),
(811,190,ls),
(820,190,o),
(820,181,qs),
(820,-23,ls),
(820,-46,o),
(854,-80,o),
(877,-80,qs),
(913,-80,ls),
(936,-80,o),
(970,-46,o),
(970,-23,qs),
(970,313,ls)
);
}
);
vertWidth = 1000;
width = 1000;
}
);
note = glyph08472;
},
{
glyphname = cornerbracketright.vert;
lastChange = "2023-08-27 07:22:36 +0000";
layers = (
{
layerId = m01;
shapes = (
{
closed = 1;
nodes = (
(800,496,o),
(766,530,o),
(743,530,qs),
(189,530,ls),
(180,530,o),
(180,539,qs),
(180,743,ls),
(180,766,o),
(146,800,o),
(123,800,qs),
(87,800,ls),
(64,800,o),
(30,766,o),
(30,743,qs),
(30,407,ls),
(30,384,o),
(64,350,o),
(87,350,qs),
(743,350,ls),
(766,350,o),
(800,384,o),
(800,407,qs),
(800,473,ls)
);
}
);
vertWidth = 1000;
width = 1000;
}
);
note = glyph08473;
},
{
glyphname = dblanglebracketleft.vert;
lastChange = "2023-08-27 07:22:36 +0000";
layers = (
{
layerId = m01;
shapes = (
{
closed = 1;
nodes = (
(985,-12,o),
(985,7,qs),
(985,73,ls),
(985,131,o),
(935,157,qs),
(550,363,ls),
(500,390,o),
(450,363,qs),
(65,157,ls),
(15,131,o),
(15,73,qs),
(15,7,ls),
(15,-12,o),
(48,-32,o),
(65,-23,qs),
(493,206,ls),
(500,209,o),
(507,206,qs),
(935,-23,ls),
(952,-32,o)
);
},
{
closed = 1;
nodes = (
(507,456,qs),
(935,227,ls),
(952,218,o),
(985,238,o),
(985,257,qs),
(985,323,ls),
(985,381,o),
(935,407,qs),
(550,613,ls),
(500,640,o),
(450,613,qs),
(65,407,ls),
(15,381,o),
(15,323,qs),
(15,257,ls),
(15,238,o),
(48,218,o),
(65,227,qs),
(493,456,ls),
(500,459,o)
);
}
);
vertWidth = 1000;
width = 1000;
}
);
note = glyph08470;
},
{
glyphname = dblanglebracketright.vert;
lastChange = "2023-08-27 07:22:36 +0000";
layers = (
{
layerId = m01;
shapes = (
{
closed = 1;
nodes = (
(985,589,o),
(985,647,qs),
(985,713,ls),
(985,732,o),
(952,752,o),
(935,743,qs),
(507,514,ls),
(500,511,o),
(493,514,qs),
(65,743,ls),
(48,752,o),
(15,732,o),
(15,713,qs),
(15,647,ls),
(15,589,o),
(65,563,qs),
(450,357,ls),
(500,330,o),
(550,357,qs),
(935,563,ls)
);
},
{
closed = 1;
nodes = (
(985,397,qs),
(985,463,ls),
(985,482,o),
(952,502,o),
(935,493,qs),
(507,264,ls),
(500,261,o),
(493,264,qs),
(65,493,ls),
(48,502,o),
(15,482,o),
(15,463,qs),
(15,397,ls),
(15,339,o),
(65,313,qs),
(450,107,ls),
(500,80,o),
(550,107,qs),
(935,313,ls),
(985,339,o)
);
}
);
vertWidth = 1000;
width = 1000;
}
);
note = glyph08471;
},
{
glyphname = parenleft.full;
lastChange = "2023-08-27 07:22:36 +0000";
layers = (
{
layerId = m01;
shapes = (
{
closed = 1;
nodes = (
(737,845,o),
(699,804,qs),
(612,710,o),
(510,479,o),
(510,360,qs),
(510,236,o),
(608,5,o),
(698,-86,qs),
(737,-125,o),
(797,-125,qs),
(843,-125,ls),
(859,-125,o),
(872,-95,o),
(861,-83,qs),
(690,114,o),
(690,360,qs),
(690,589,o),
(863,801,qs),
(874,814,o),
(859,845,o),
(843,845,qs),
(797,845,ls)
);
}
);
vertWidth = 1000;
width = 1000;
}
);
note = uniFF08;
unicode = 65288;
},
{
glyphname = parenright.full;
lastChange = "2023-08-27 07:22:36 +0000";
layers = (
{
layerId = m01;
shapes = (
{
closed = 1;
nodes = (
(141,845,o),
(126,814,o),
(137,801,qs),
(310,589,o),
(310,360,qs),
(310,114,o),
(139,-83,qs),
(128,-95,o),
(141,-125,o),
(157,-125,qs),
(203,-125,ls),
(263,-125,o),
(302,-86,qs),
(392,5,o),
(490,236,o),
(490,360,qs),
(490,479,o),
(388,710,o),
(301,804,qs),
(263,845,o),
(203,845,qs),
(157,845,ls)
);
}
);
vertWidth = 1000;
width = 1000;
}
);
note = uniFF09;
unicode = 65289;
},
{
glyphname = tortoiseshellbracketleft.vert;
lastChange = "2023-08-27 07:22:36 +0000";
layers = (
{
layerId = m01;
shapes = (
{
closed = 1;
nodes = (
(888,384,o),
(848,415,o),
(823,415,qs),
(177,415,ls),
(152,415,o),
(112,384,o),
(106,360,qs),
(24,30,ls),
(19,9,o),
(45,-25,o),
(67,-25,qs),
(87,-25,ls),
(112,-25,o),
(152,6,o),
(158,30,qs),
(210,237,ls),
(212,245,o),
(221,245,qs),
(780,245,ls),
(788,245,o),
(790,237,qs),
(842,30,ls),
(848,6,o),
(888,-25,o),
(913,-25,qs),
(933,-25,ls),
(955,-25,o),
(981,9,o),
(976,30,qs),
(894,360,ls)
);
}
);
vertWidth = 1000;
width = 1000;
}
);
note = glyph08479;
},
{
glyphname = tortoiseshellbracketright.vert;
lastChange = "2023-08-27 07:22:36 +0000";
layers = (
{
layerId = m01;
shapes = (
{
closed = 1;
nodes = (
(981,711,o),
(955,745,o),
(933,745,qs),
(913,745,ls),
(888,745,o),
(848,714,o),
(842,690,qs),
(790,483,ls),
(788,475,o),
(779,475,qs),
(220,475,ls),
(212,475,o),
(210,483,qs),
(158,690,ls),
(152,714,o),
(112,745,o),
(87,745,qs),
(67,745,ls),
(45,745,o),
(19,711,o),
(24,690,qs),
(106,360,ls),
(112,336,o),
(152,305,o),
(177,305,qs),
(823,305,ls),
(848,305,o),
(888,336,o),
(894,360,qs),
(976,690,ls)
);
}
);
vertWidth = 1000;
width = 1000;
}
);
note = glyph08480;
},
{
glyphname = whitecornerbracketleft.vert;
lastChange = "2023-08-27 07:22:36 +0000";
layers = (
{
layerId = m01;
shapes = (
{
closed = 1;
nodes = (
(790,29,qs),
(790,183,ls),
(790,206,o),
(756,240,o),
(733,240,qs),
(259,240,ls),
(250,240,o),
(250,249,qs),
(250,312,ls),
(250,320,o),
(259,320,qs),
(862,320,ls),
(870,320,o),
(870,312,qs),
(870,29,ls),
(870,20,o),
(862,20,qs),
(799,20,ls),
(790,20,o)
);
},
{
closed = 1;
nodes = (
(970,386,o),
(936,420,o),
(913,420,qs),
(207,420,ls),
(184,420,o),
(150,386,o),
(150,363,qs),
(150,320,l),
(150,197,ls),
(150,174,o),
(184,140,o),
(207,140,qs),
(681,140,ls),
(690,140,o),
(690,131,qs),
(690,-23,ls),
(690,-46,o),
(724,-80,o),
(747,-80,qs),
(913,-80,ls),
(936,-80,o),
(970,-46,o),
(970,-23,qs),
(970,363,ls)
);
}
);
vertWidth = 1000;
width = 1000;
}
);
note = glyph08474;
},
{
glyphname = whitecornerbracketright.vert;
lastChange = "2023-08-27 07:22:36 +0000";
layers = (
{
layerId = m01;
shapes = (
{
closed = 1;
nodes = (
(130,409,qs),
(130,692,ls),
(130,700,o),
(139,700,qs),
(202,700,ls),
(210,700,o),
(210,692,qs),
(210,537,ls),
(210,514,o),
(244,480,o),
(267,480,qs),
(742,480,ls),
(750,480,o),
(750,472,qs),
(750,409,ls),
(750,400,o),
(742,400,qs),
(139,400,ls),
(130,400,o)
);
},
{
closed = 1;
nodes = (
(850,523,ls),
(850,546,o),
(816,580,o),
(793,580,qs),
(319,580,ls),
(310,580,o),
(310,589,qs),
(310,743,ls),
(310,766,o),
(276,800,o),
(253,800,qs),
(87,800,ls),
(64,800,o),
(30,766,o),
(30,743,qs),
(30,357,ls),
(30,334,o),
(64,300,o),
(87,300,qs),
(793,300,ls),
(816,300,o),
(850,334,o),
(850,357,qs),
(850,400,l)
);
}
);
vertWidth = 1000;
width = 1000;
}
);
note = glyph08475;
},
{
glyphname = whitelenticularbracketleft.vert;
lastChange = "2023-08-27 07:22:36 +0000";
layers = (
{
layerId = m01;
shapes = (
{
closed = 1;
nodes = (
(115,147,qs),
(115,282,ls),
(115,290,o),
(124,290,qs),
(876,290,ls),
(885,290,o),
(885,282,qs),
(885,147,ls),
(885,138,o),
(877,142,qs),
(698,230,o),
(302,230,o),
(123,142,qs),
(115,138,o)
);
},
{
closed = 1;
nodes = (
(985,356,o),
(951,390,o),
(928,390,qs),
(72,390,ls),
(49,390,o),
(15,356,o),
(15,333,qs),
(15,7,ls),
(15,-9,o),
(44,-24,o),
(58,-14,qs),
(247,130,o),
(753,130,o),
(942,-14,qs),
(956,-24,o),
(985,-9,o),
(985,7,qs),
(985,333,ls)
);
}
);
vertWidth = 1000;
width = 1000;
}
);
note = glyph08481;
},
{
glyphname = whitelenticularbracketright.vert;
lastChange = "2023-08-27 07:22:36 +0000";
layers = (
{
layerId = m01;
shapes = (
{
closed = 1;
nodes = (
(115,439,qs),
(115,574,ls),
(115,582,o),
(123,578,qs),
(302,490,o),
(698,490,o),
(877,578,qs),
(885,582,o),
(885,574,qs),
(885,439,ls),
(885,430,o),
(876,430,qs),
(124,430,ls),
(115,430,o)
);
},
{
closed = 1;
nodes = (
(985,729,o),
(956,744,o),
(942,734,qs),
(753,590,o),
(247,590,o),
(58,734,qs),
(44,744,o),
(15,729,o),
(15,713,qs),
(15,387,ls),
(15,364,o),
(49,330,o),
(72,330,qs),
(928,330,ls),
(951,330,o),
(985,364,o),
(985,387,qs),
(985,713,ls)
);
}
);
vertWidth = 1000;
width = 1000;
}
);
note = glyph08482;
},
{
glyphname = braceleft.full.vert;
lastChange = "2023-08-27 07:22:36 +0000";
layers = (
{
layerId = m01;
shapes = (
{
closed = 1;
nodes = (
(985,265,o),
(907,345,o),
(815,345,qs),
(680,345,ls),
(617,345,o),
(570,385,o),
(570,435,qs),
(570,448,ls),
(570,471,o),
(536,505,o),
(513,505,qs),
(487,505,ls),
(464,505,o),
(430,471,o),
(430,448,qs),
(430,435,ls),
(430,385,o),
(383,345,o),
(320,345,qs),
(185,345,ls),
(93,345,o),
(15,265,o),
(15,175,qs),
(15,32,ls),
(15,9,o),
(49,-25,o),
(72,-25,qs),
(88,-25,ls),
(111,-25,o),
(145,9,o),
(145,32,qs),
(145,85,ls),
(145,147,o),
(172,175,o),
(235,175,qs),
(325,175,ls),
(397,175,o),
(475,230,o),
(499,294,q),
(499,295,o),
(501,295,o),
(501,294,q),
(525,230,o),
(603,175,o),
(675,175,qs),
(765,175,ls),
(828,175,o),
(855,147,o),
(855,85,qs),
(855,32,ls),
(855,9,o),
(889,-25,o),
(912,-25,qs),
(928,-25,ls),
(951,-25,o),
(985,9,o),
(985,32,qs),
(985,175,ls)
);
}
);
vertWidth = 1000;
width = 1000;
}
);
note = glyph08522;
},
{
glyphname = braceright.full.vert;
lastChange = "2023-08-27 07:22:36 +0000";
layers = (
{
layerId = m01;
shapes = (
{
closed = 1;
nodes = (
(570,335,o),
(617,375,o),
(680,375,qs),
(815,375,ls),
(907,375,o),
(985,455,o),
(985,545,qs),
(985,688,ls),
(985,711,o),
(951,745,o),
(928,745,qs),
(912,745,ls),
(889,745,o),
(855,711,o),
(855,688,qs),
(855,635,ls),
(855,573,o),
(828,545,o),
(765,545,qs),
(675,545,ls),
(603,545,o),
(525,490,o),
(501,426,q),
(501,425,o),
(499,425,o),
(499,426,q),
(475,490,o),
(397,545,o),
(325,545,qs),
(235,545,ls),
(172,545,o),
(145,573,o),
(145,635,qs),
(145,688,ls),
(145,711,o),
(111,745,o),
(88,745,qs),
(72,745,ls),
(49,745,o),
(15,711,o),
(15,688,qs),
(15,545,ls),
(15,455,o),
(93,375,o),
(185,375,qs),
(320,375,ls),
(383,375,o),
(430,335,o),
(430,285,qs),
(430,272,ls),
(430,249,o),
(464,215,o),
(487,215,qs),
(513,215,ls),
(536,215,o),
(570,249,o),
(570,272,qs),
(570,285,ls)
);
}
);
vertWidth = 1000;
width = 1000;
}
);
note = glyph08523;
},
{
glyphname = bracketleft.full.vert;
lastChange = "2023-08-27 07:22:36 +0000";
layers = (
{
layerId = m01;
shapes = (
{
closed = 1;
nodes = (
(985,381,o),
(951,415,o),
(928,415,qs),
(72,415,ls),
(49,415,o),
(15,381,o),
(15,358,qs),
(15,32,ls),
(15,9,o),
(49,-25,o),
(72,-25,qs),
(88,-25,ls),
(111,-25,o),
(145,9,o),
(145,32,qs),
(145,236,ls),
(145,245,o),
(154,245,qs),
(846,245,ls),
(855,245,o),
(855,236,qs),
(855,32,ls),
(855,9,o),
(889,-25,o),
(912,-25,qs),
(928,-25,ls),
(951,-25,o),
(985,9,o),
(985,32,qs),
(985,358,ls)
);
}
);
vertWidth = 1000;
width = 1000;
}
);
note = glyph08520;
},
{
glyphname = bracketright.full.vert;
lastChange = "2023-08-27 07:22:36 +0000";
layers = (
{
layerId = m01;
shapes = (
{
closed = 1;
nodes = (
(985,711,o),
(951,745,o),
(928,745,qs),
(912,745,ls),
(889,745,o),
(855,711,o),
(855,688,qs),
(855,484,ls),
(855,475,o),
(846,475,qs),
(154,475,ls),
(145,475,o),
(145,484,qs),
(145,688,ls),
(145,711,o),
(111,745,o),
(88,745,qs),
(72,745,ls),
(49,745,o),
(15,711,o),
(15,688,qs),
(15,362,ls),
(15,339,o),
(49,305,o),
(72,305,qs),
(928,305,ls),
(951,305,o),
(985,339,o),
(985,362,qs),
(985,688,ls)
);
}
);
vertWidth = 1000;
width = 1000;
}
);
note = glyph08521;
},
{
glyphname = parenleft.full.vert;
lastChange = "2023-08-27 07:22:36 +0000";
layers = (
{
layerId = m01;
shapes = (
{
closed = 1;
nodes = (
(985,123,o),
(944,161,qs),
(850,248,o),
(619,350,o),
(500,350,qs),
(376,350,o),
(145,252,o),
(54,162,qs),
(15,123,o),
(15,63,qs),
(15,17,ls),
(15,1,o),
(45,-12,o),
(57,-1,qs),
(254,170,o),
(500,170,qs),
(729,170,o),
(941,-3,qs),
(954,-14,o),
(985,1,o),
(985,17,qs),
(985,63,ls)
);
}
);
vertWidth = 1000;
width = 1000;
}
);
note = glyph08516;
},
{
glyphname = parenright.full.vert;
lastChange = "2023-08-27 07:22:36 +0000";
layers = (
{
layerId = m01;
shapes = (
{
closed = 1;
nodes = (
(985,719,o),
(954,734,o),
(941,723,qs),
(729,550,o),
(500,550,qs),
(254,550,o),
(57,721,qs),
(45,732,o),
(15,719,o),
(15,703,qs),
(15,657,ls),
(15,597,o),
(54,558,qs),
(145,468,o),
(376,370,o),
(500,370,qs),
(619,370,o),
(850,472,o),
(944,559,qs),
(985,597,o),
(985,657,qs),
(985,703,ls)
);
}
